STARTFONT 2.1
FONT -Monotype-Century Gothic-Bold-I-Normal--33-240-100-100-P-162-iso8859-2
SIZE 24 100 100
FONTBOUNDINGBOX 46 40 -6 -7

STARTPROPERTIES 24
FOUNDRY "Monotype"
FAMILY_NAME "Century Gothic"
WEIGHT_NAME "Bold"
SLANT "I"
SETWIDTH_NAME "Normal"
ADD_STYLE_NAME ""
PIXEL_SIZE 33
POINT_SIZE 240
RESOLUTION_X 100
RESOLUTION_Y 100
SPACING "P"
AVERAGE_WIDTH 162
CHARSET_REGISTRY "iso8859"
CHARSET_ENCODING "2"
FACE_NAME "Century Gothic Bold Italic ISO Latin2"
_DEC_DEVICE_FONTNAMES "PS=centurygothic-bit-lat2"
COPYRIGHT "Copyright (c) 1993 Monotype Typography Ltd."
CAP_HEIGHT 28
X_HEIGHT 21
WEIGHT 10
QUAD_WIDTH 19
DEFAULT_CHAR 160
FONT_DESCENT 7
FONT_ASCENT 33
ENDPROPERTIES

CHARS 191

STARTCHAR space
ENCODING 32
SWIDTH 280 0
DWIDTH 9 0
BBX 0 0 0 0
BITMAP
ENDCHAR

STARTCHAR exclam
ENCODING 33
SWIDTH 280 0
DWIDTH 9 0
BBX 8 24 1 0
BITMAP
1F
1F
1E
1E
1E
3E
3E
3E
3C
3C
3C
3C
7C
7C
7C
78
78
00
00
70
F8
F8
F8
70
ENDCHAR

STARTCHAR quotedbl
ENCODING 34
SWIDTH 360 0
DWIDTH 12 0
BBX 11 8 1 16
BITMAP
F9E0
71E0
71E0
71E0
71E0
70E0
70E0
70C0
ENDCHAR

STARTCHAR numbersign
ENCODING 35
SWIDTH 600 0
DWIDTH 20 0
BBX 18 24 1 0
BITMAP
038F00
038E00
038E00
038E00
078E00
070E00
071E00
7FFFC0
7FFFC0
7FFFC0
071C00
0F1C00
0E3C00
FFFF80
FFFF80
FFFF80
0E3800
1E3800
1C3800
1C7800
1C7800
1C7000
1C7000
1C7000
ENDCHAR

STARTCHAR dollar
ENCODING 36
SWIDTH 560 0
DWIDTH 18 0
BBX 17 30 0 -4
BITMAP
003800
003000
01F800
07FE00
0FFF00
0FFF80
1F0F00
1E0200
1E0000
1F0000
1F8000
0FE000
07F000
03FC00
00FE00
007E00
001F00
000F00
000F00
300F00
F81F00
FC3F00
7FFE00
3FFC00
1FF800
07E000
038000
038000
030000
030000
ENDCHAR

STARTCHAR percent
ENCODING 37
SWIDTH 860 0
DWIDTH 28 0
BBX 25 25 2 -1
BITMAP
0F800F80
3FFFFF00
7FFFFE00
70FFDC00
E0E03800
E0E07000
E0E0E000
F1C1C000
7FC38000
7F870000
1E0F0000
000E0000
001C0000
00383C00
0070FF00
00E1FF00
01C1C780
03838380
07038380
0F038380
1E03C700
1C01FF00
3801FE00
70007800
E0000000
ENDCHAR

STARTCHAR ampersand
ENCODING 38
SWIDTH 680 0
DWIDTH 22 0
BBX 20 23 1 0
BITMAP
00F800
03FE00
07FE00
0FFF00
0F9F00
0F0F00
0F1F00
0FBF00
07FE00
07FC00
07F800
1FE000
3FF000
7FF840
7CFCC0
F87FE0
F01FF0
F03FC0
F8FF80
FFFFC0
7FFFC0
3FF3E0
1F81F0
ENDCHAR

STARTCHAR quoteright
ENCODING 39
SWIDTH 280 0
DWIDTH 9 0
BBX 5 9 4 15
BITMAP
F8
F0
F0
F0
F0
60
E0
C0
40
ENDCHAR

STARTCHAR parenleft
ENCODING 40
SWIDTH 380 0
DWIDTH 13 0
BBX 13 32 2 -6
BITMAP
01F8
03F0
03E0
07C0
0F80
0F80
1F00
1F00
3E00
3E00
3C00
7C00
7C00
7C00
7800
7800
F800
F800
F800
F800
F800
F800
F800
F800
7800
7C00
7C00
7C00
3E00
3E00
3F00
1F80
ENDCHAR

STARTCHAR parenright
ENCODING 41
SWIDTH 380 0
DWIDTH 13 0
BBX 13 32 -4 -6
BITMAP
07C0
07E0
03E0
03F0
01F0
01F0
00F0
00F8
00F8
00F8
00F8
00F8
00F8
00F8
00F8
00F8
00F0
00F0
01F0
01F0
01F0
01E0
03E0
03E0
07C0
07C0
0F80
0F80
1F00
3E00
7E00
FC00
ENDCHAR

STARTCHAR asterisk
ENCODING 42
SWIDTH 440 0
DWIDTH 15 0
BBX 13 13 2 11
BITMAP
0F00
2700
6720
7670
FEF8
77E0
0F00
7FF8
FEF0
7670
6720
0F00
0F00
ENDCHAR

STARTCHAR plus
ENCODING 43
SWIDTH 600 0
DWIDTH 20 0
BBX 16 16 2 4
BITMAP
03C0
03C0
03C0
03C0
03C0
03C0
FFFF
FFFF
FFFF
FFFF
03C0
03C0
03C0
03C0
03C0
03C0
ENDCHAR

STARTCHAR comma
ENCODING 44
SWIDTH 280 0
DWIDTH 9 0
BBX 7 7 -1 -3
BITMAP
18
3E
3C
78
78
F0
60
ENDCHAR

STARTCHAR minus
ENCODING 45
SWIDTH 600 0
DWIDTH 20 0
BBX 16 4 2 10
BITMAP
FFFF
FFFF
FFFF
FFFF
ENDCHAR

STARTCHAR period
ENCODING 46
SWIDTH 280 0
DWIDTH 9 0
BBX 5 5 1 0
BITMAP
70
F8
F8
F8
70
ENDCHAR

STARTCHAR slash
ENCODING 47
SWIDTH 460 0
DWIDTH 15 0
BBX 13 29 1 -4
BITMAP
0038
0038
0078
0070
0070
00E0
00E0
00E0
01C0
01C0
01C0
0380
0380
0780
0700
0700
0E00
0E00
0E00
1C00
1C00
3C00
3800
3800
7000
7000
7000
E000
E000
ENDCHAR

STARTCHAR zero
ENCODING 48
SWIDTH 560 0
DWIDTH 18 0
BBX 16 24 1 0
BITMAP
01F0
07FC
0FFC
1FFE
3F1E
3E1F
7C0F
7C0F
780F
F80F
F80F
F80F
F00F
F01F
F01F
F01E
F03E
F03E
F87C
78FC
7FF8
7FF0
3FE0
0F80
ENDCHAR

STARTCHAR one
ENCODING 49
SWIDTH 560 0
DWIDTH 18 0
BBX 9 24 5 0
BITMAP
7F80
7F00
7F00
FF00
0F00
0F00
1F00
1F00
1F00
1E00
1E00
1E00
1E00
3E00
3E00
3E00
3C00
3C00
3C00
3C00
3C00
7C00
7C00
7800
ENDCHAR

STARTCHAR two
ENCODING 50
SWIDTH 560 0
DWIDTH 18 0
BBX 16 24 0 0
BITMAP
03F0
07FC
0FFE
1FFE
1F1F
3E0F
3E0F
3C0F
001F
001F
003E
007E
007C
00F8
01F0
03E0
07E0
0FC0
1F80
3E00
7FFE
FFFE
FFFE
FFFE
ENDCHAR

STARTCHAR three
ENCODING 51
SWIDTH 560 0
DWIDTH 18 0
BBX 15 24 1 0
BITMAP
03F0
07F8
0FFC
1FFE
3E3E
3C1E
001E
003E
007C
01FC
01F8
01F0
03F8
007C
003E
001E
F01E
F01E
F83E
FC7C
7FFC
3FF8
1FF0
0FC0
ENDCHAR

STARTCHAR four
ENCODING 52
SWIDTH 560 0
DWIDTH 18 0
BBX 17 24 0 0
BITMAP
000780
000F80
001F00
003F00
007F00
007F00
00FF00
01FF00
03EF00
03DF00
07DE00
0F9E00
1F1E00
1E1E00
3E1E00
781E00
7FFF80
FFFF80
FFFF80
FFFF80
003C00
003C00
003C00
003C00
ENDCHAR

STARTCHAR five
ENCODING 53
SWIDTH 560 0
DWIDTH 18 0
BBX 18 24 0 0
BITMAP
03FFC0
03FF80
03FF80
07FF80
078000
078000
0F8000
0F0000
0FF800
0FFC00
1FFE00
1FFF00
1F3F00
001F00
000F00
000F00
000F00
081F00
F81F00
7C3E00
7FFE00
3FFC00
1FF800
07E000
ENDCHAR

STARTCHAR six
ENCODING 54
SWIDTH 560 0
DWIDTH 18 0
BBX 15 24 1 0
BITMAP
0040
00E0
00F8
01F0
03E0
03E0
07C0
0F80
0F00
1E00
3FE0
3FF8
7FFC
7FFC
F83E
F01E
F01E
F01E
F03E
F87E
7FFC
3FF8
1FF0
0FC0
ENDCHAR

STARTCHAR seven
ENCODING 55
SWIDTH 560 0
DWIDTH 18 0
BBX 16 24 3 0
BITMAP
7FFF
7FFF
FFFE
FFFE
003C
007C
0078
00F8
01F0
01F0
03E0
03C0
07C0
0780
0F80
1F00
1F00
3E00
3C00
7C00
7800
F800
7000
1000
ENDCHAR

STARTCHAR eight
ENCODING 56
SWIDTH 560 0
DWIDTH 18 0
BBX 16 24 1 0
BITMAP
01F8
07FC
0FFE
0FFF
1F1F
1E0F
1E0F
1E0F
1F1E
1FFE
07F0
1FF8
3FFC
7C3E
781F
F80F
F00F
F00F
F81F
FC3F
7FFE
7FFC
1FF8
07E0
ENDCHAR

STARTCHAR nine
ENCODING 57
SWIDTH 560 0
DWIDTH 18 0
BBX 15 24 2 0
BITMAP
0FE0
1FF8
3FFC
7FFC
FC3E
F81E
F01E
F01E
F01E
F83E
7FFC
7FFC
3FF8
0EF8
01F0
03E0
03E0
07C0
0F80
0F80
1F00
3E00
0C00
0400
ENDCHAR

STARTCHAR colon
ENCODING 58
SWIDTH 280 0
DWIDTH 9 0
BBX 7 18 1 0
BITMAP
1C
3E
3E
3E
1C
00
00
00
00
00
00
00
00
70
F8
F8
F8
70
ENDCHAR

STARTCHAR semicolon
ENCODING 59
SWIDTH 280 0
DWIDTH 9 0
BBX 8 21 0 -3
BITMAP
0E
1F
1F
1F
0E
00
00
00
00
00
00
00
00
10
38
3C
78
78
F0
E0
C0
ENDCHAR

STARTCHAR less
ENCODING 60
SWIDTH 600 0
DWIDTH 20 0
BBX 16 20 2 2
BITMAP
0001
0007
001F
007F
01FE
07F8
1FE0
7FC0
FF00
F400
F800
FE00
7F80
1FE0
07F8
01FE
007F
001F
0007
0001
ENDCHAR

STARTCHAR equal
ENCODING 61
SWIDTH 600 0
DWIDTH 20 0
BBX 16 11 2 6
BITMAP
FFFF
FFFF
FFFF
FFFF
0000
0000
0000
FFFF
FFFF
FFFF
FFFF
ENDCHAR

STARTCHAR greater
ENCODING 62
SWIDTH 600 0
DWIDTH 20 0
BBX 16 20 2 2
BITMAP
8000
C000
F000
FC00
FF00
3FC0
0FF0
03FC
00FF
001F
003F
007F
01FE
07F8
1FE0
7F80
FE00
F800
E000
8000
ENDCHAR

STARTCHAR question
ENCODING 63
SWIDTH 560 0
DWIDTH 18 0
BBX 16 25 1 0
BITMAP
07F0
1FFC
3FFE
7FFF
7C1F
F80F
F80F
001F
003F
007E
00FC
03F8
03F0
07E0
07C0
0F80
0F80
0F80
0000
0000
0E00
1F00
1F00
1F00
0E00
ENDCHAR

STARTCHAR at
ENCODING 64
SWIDTH 740 0
DWIDTH 24 0
BBX 24 25 1 0
BITMAP
00FF80
03FFE0
07C1F0
1E0038
1C001C
38000E
703C06
60FEE7
E1FFE3
E3FFE3
C3C3E3
C781C3
C781C3
C781C7
C783C6
E7C7CE
63FFDC
73FFF8
70FBE0
380000
1C001E
0F0078
07E1F0
03FFE0
007F80
ENDCHAR

STARTCHAR A
ENCODING 65
SWIDTH 740 0
DWIDTH 24 0
BBX 22 24 0 0
BITMAP
000F00
000F80
001F80
001F80
003F80
003FC0
007FC0
00FBC0
00FBC0
01F3E0
01F3E0
03E1E0
03E1E0
07C1F0
0781F0
0FFFF0
0FFFF0
1FFFF8
3FFFF8
3E0078
7C0078
7C007C
F8007C
F8003C
ENDCHAR

STARTCHAR B
ENCODING 66
SWIDTH 580 0
DWIDTH 19 0
BBX 15 24 2 0
BITMAP
1FE0
1FF8
3FFC
3FFE
3E3E
3E1E
3C1E
3C1E
3C3E
3C7E
7FFC
7FF0
7FF8
7FFC
787E
783E
781E
F81E
F03E
F07E
FFFE
FFFC
FFF8
FFE0
ENDCHAR

STARTCHAR C
ENCODING 67
SWIDTH 780 0
DWIDTH 26 0
BBX 23 24 1 0
BITMAP
003FC0
00FFF8
03FFFC
07FFFE
0FE07C
1F8018
3F0000
3E0000
7C0000
7C0000
F80000
F80000
F80000
F80000
F80000
780000
7C0000
7E0000
3F0030
3FC0F0
1FFFFC
0FFFF8
03FFF0
00FF80
ENDCHAR

STARTCHAR D
ENCODING 68
SWIDTH 700 0
DWIDTH 23 0
BBX 21 24 1 0
BITMAP
1FF800
1FFF00
1FFF80
1FFFC0
1E0FE0
1E03E0
3E01F0
3E01F0
3E00F0
3C00F8
3C00F8
3C00F8
3C00F8
7C00F8
7C00F0
7C01F0
7C01F0
7803E0
7807E0
781FC0
7FFF80
FFFF80
FFFE00
FFF800
ENDCHAR

STARTCHAR E
ENCODING 69
SWIDTH 520 0
DWIDTH 17 0
BBX 16 24 1 0
BITMAP
1FFF
1FFF
1FFE
3FFE
3E00
3E00
3E00
3C00
3C00
3FFE
3FFC
7FFC
7FFC
7C00
7C00
7800
7800
7800
7800
F800
FFF8
FFF8
FFF8
FFF8
ENDCHAR

STARTCHAR F
ENCODING 70
SWIDTH 480 0
DWIDTH 16 0
BBX 15 24 1 0
BITMAP
1FFE
1FFC
1FFC
3FFC
3E00
3E00
3E00
3C00
3C00
3FF8
3FF8
7FF8
7FF8
7C00
7C00
7800
7800
7800
7800
F800
F800
F800
F800
F000
ENDCHAR

STARTCHAR G
ENCODING 71
SWIDTH 840 0
DWIDTH 28 0
BBX 24 24 2 0
BITMAP
007F80
01FFE0
07FFF8
0FFFFC
1FC0FE
3F003C
3E0018
7C0000
7C0000
F80000
F80000
F00000
F00FFF
F00FFF
F00FFF
F81FFF
F8001E
7C003E
7E007C
3F81FC
1FFFF8
0FFFF0
07FFC0
00FF00
ENDCHAR

STARTCHAR H
ENCODING 72
SWIDTH 680 0
DWIDTH 22 0
BBX 20 24 1 0
BITMAP
1F00F0
1F00F0
1E00F0
1E01F0
1E01F0
1E01F0
3E01F0
3E01E0
3E01E0
3FFFE0
3FFFE0
3FFFE0
3FFFE0
7C03E0
7C03C0
7C03C0
7803C0
7803C0
7807C0
7807C0
7807C0
F80780
F80780
F80780
ENDCHAR

STARTCHAR I
ENCODING 73
SWIDTH 280 0
DWIDTH 9 0
BBX 8 24 1 0
BITMAP
1F
1E
1E
1E
1E
3E
3E
3C
3C
3C
3C
3C
7C
7C
7C
78
78
78
78
78
F8
F8
F0
F0
ENDCHAR

STARTCHAR J
ENCODING 74
SWIDTH 480 0
DWIDTH 16 0
BBX 16 24 -1 0
BITMAP
001F
001F
001F
001E
001E
001E
003E
003E
003E
003E
003C
003C
003C
003C
007C
007C
007C
1078
3878
FCF8
7FF8
3FF0
1FF0
07C0
ENDCHAR

STARTCHAR K
ENCODING 75
SWIDTH 620 0
DWIDTH 20 0
BBX 20 24 1 0
BITMAP
1F03F0
1F07E0
1F0FC0
1E1F80
1E3F00
1E7E00
1EFC00
3EF800
3FF000
3FE000
3FC000
3FC000
3FE000
3DE000
7DF000
7DF000
7CF800
787C00
787C00
783E00
781F00
F81F00
F80F80
F807C0
ENDCHAR

STARTCHAR L
ENCODING 76
SWIDTH 440 0
DWIDTH 15 0
BBX 13 24 1 0
BITMAP
1F00
1F00
1F00
1E00
1E00
1E00
1E00
3E00
3E00
3E00
3C00
3C00
3C00
3C00
7C00
7C00
7C00
7800
7800
7800
7FF8
FFF0
FFF0
FFF0
ENDCHAR

STARTCHAR M
ENCODING 77
SWIDTH 900 0
DWIDTH 30 0
BBX 26 24 0 0
BITMAP
03C003C0
03C003C0
07E007C0
07E007C0
07E00FC0
07E00FC0
0FF01FC0
0FF01FC0
0FF03FC0
0F703FC0
1F787DC0
1E787BC0
1E78FBC0
1E78F3C0
3E7DF3C0
3C3DE3C0
3C3DE3C0
3C3FC3C0
7C3FC3C0
781F83C0
781F83C0
781F03C0
F81F03C0
F00E03C0
ENDCHAR

STARTCHAR N
ENCODING 78
SWIDTH 740 0
DWIDTH 24 0
BBX 22 24 1 0
BITMAP
1E003C
1F003C
1F003C
1F807C
1FC07C
1FC07C
3FE078
3FE078
3DF078
3CF078
3CF878
3C78F8
3C7CF8
3C3CF8
7C3EF0
7C1EF0
781FF0
780FF0
780FF0
7807F0
7803F0
F803E0
F801E0
F001E0
ENDCHAR

STARTCHAR O
ENCODING 79
SWIDTH 840 0
DWIDTH 28 0
BBX 25 24 1 0
BITMAP
007FC000
01FFF000
07FFF800
0FFFFE00
1FE07E00
3F803F00
3E001F00
7C000F80
7C000F80
F8000780
F8000780
F0000780
F0000780
F0000F80
F0000F80
F8001F00
F8001F00
FC003E00
7E00FE00
3F03FC00
3FFFF800
1FFFF000
07FFC000
01FE0000
ENDCHAR

STARTCHAR P
ENCODING 80
SWIDTH 560 0
DWIDTH 18 0
BBX 16 24 2 0
BITMAP
1FF0
1FFC
3FFE
3FFF
3E3F
3C0F
3C0F
3C0F
3C1F
7C7F
7FFE
7FFC
7FF8
7FE0
7800
7800
7800
F800
F800
F800
F000
F000
F000
F000
ENDCHAR

STARTCHAR Q
ENCODING 81
SWIDTH 840 0
DWIDTH 28 0
BBX 26 25 1 -1
BITMAP
007FC000
01FFF000
07FFF800
0FFFFE00
1FE07E00
3F803F00
3E001F00
7C000F80
7C000F80
F8000780
F8000780
F0000780
F0000780
F0000F80
F0000F80
F81F9F00
F80FDF00
FC07FE00
7E01FE00
3F03F800
3FFFFC00
1FFFFE00
07FFDF00
01FE1F80
00000FC0
ENDCHAR

STARTCHAR R
ENCODING 82
SWIDTH 580 0
DWIDTH 19 0
BBX 16 24 2 0
BITMAP
1FF0
1FFC
3FFE
3FFF
3E1F
3C0F
3C0F
3C1F
3C3F
7FFE
7FFE
7FF8
7FC0
7BE0
79E0
79F0
79F0
F8F8
F8F8
F87C
F07C
F03C
F03E
F01F
ENDCHAR

STARTCHAR S
ENCODING 83
SWIDTH 520 0
DWIDTH 17 0
BBX 16 24 0 0
BITMAP
03F0
07FC
0FFE
1FFF
1F1E
1E0C
1E00
1F00
0F80
0FC0
07E0
03F0
01F8
00F8
007C
007E
003E
203E
703E
FC7E
FFFC
7FF8
3FF0
0FE0
ENDCHAR

STARTCHAR T
ENCODING 84
SWIDTH 420 0
DWIDTH 14 0
BBX 15 24 1 0
BITMAP
FFFE
FFFE
FFFC
FFFC
0780
0780
0F80
0F80
0F80
0F80
0F00
0F00
0F00
0F00
1F00
1F00
1F00
1E00
1E00
1E00
1E00
3E00
3E00
3E00
ENDCHAR

STARTCHAR U
ENCODING 85
SWIDTH 640 0
DWIDTH 21 0
BBX 18 24 2 0
BITMAP
3C03C0
3C07C0
3C07C0
7C07C0
7C0780
7C0780
7C0780
780780
780F80
780F80
780F80
F80F80
F80F00
F80F00
F00F00
F01F00
F01F00
F01F00
F83E00
FC7E00
7FFC00
7FFC00
3FF800
0FE000
ENDCHAR

STARTCHAR V
ENCODING 86
SWIDTH 700 0
DWIDTH 23 0
BBX 22 24 2 0
BITMAP
F0007C
F0007C
F800F8
7800F0
7801F0
7801E0
7C03E0
3C07C0
3C07C0
3C0F80
3E0F80
1E1F00
1E1F00
1E3E00
1F3E00
0F7C00
0F7C00
0FF800
0FF000
07F000
07E000
07E000
07C000
07C000
ENDCHAR

STARTCHAR W
ENCODING 87
SWIDTH 900 0
DWIDTH 30 0
BBX 29 24 2 0
BITMAP
F00700F8
F00F00F0
F00F81F0
F81F81E0
781F81E0
783F83E0
783F83C0
787FC3C0
787BC7C0
78FBC780
78F3C780
79F3CF80
79F3EF00
7BE1EF00
7BE1EE00
3FC1FE00
3FC1FE00
3F81FC00
3F80FC00
3F00FC00
3F00F800
3E00F800
3E00F800
3C00F000
ENDCHAR

STARTCHAR X
ENCODING 88
SWIDTH 680 0
DWIDTH 22 0
BBX 22 24 0 0
BITMAP
0F807C
0780F8
07C1F8
03C1F0
03E3E0
03E7C0
01F7C0
01FF80
00FF00
00FF00
007E00
007C00
00FC00
00FE00
01FE00
03FF00
07EF00
07CF80
0F8F80
1F8780
1F07C0
3E03C0
7C03E0
FC01E0
ENDCHAR

STARTCHAR Y
ENCODING 89
SWIDTH 620 0
DWIDTH 20 0
BBX 20 24 1 0
BITMAP
F801F0
7803E0
7C07C0
7C07C0
3C0F80
3E1F00
1E3F00
1E3E00
1F7C00
0F7800
0FF800
0FF000
07E000
07E000
03C000
07C000
07C000
07C000
078000
078000
078000
078000
0F8000
0F8000
ENDCHAR

STARTCHAR Z
ENCODING 90
SWIDTH 500 0
DWIDTH 17 0
BBX 16 24 0 0
BITMAP
1FFF
1FFF
1FFE
3FFE
003C
007C
0078
00F8
00F0
01F0
01E0
03E0
03C0
07C0
0780
0F80
0F80
1F00
1F00
3E00
3FFC
3FFC
7FFC
FFFC
ENDCHAR

STARTCHAR bracketleft
ENCODING 91
SWIDTH 320 0
DWIDTH 11 0
BBX 11 30 1 -6
BITMAP
0FE0
0FE0
0FE0
0FE0
1F00
1F00
1F00
1F00
1E00
1E00
1E00
3E00
3E00
3E00
3C00
3C00
3C00
3C00
7C00
7C00
7C00
7800
7800
7800
7800
F800
FE00
FE00
FE00
FE00
ENDCHAR

STARTCHAR backslash
ENCODING 92
SWIDTH 640 0
DWIDTH 21 0
BBX 13 29 4 -4
BITMAP
E000
E000
7000
7000
7000
3800
3800
3C00
1C00
1C00
0E00
0E00
0E00
0700
0700
0780
0380
0380
01C0
01C0
01C0
00E0
00E0
00F0
0070
0070
0078
0038
0038
ENDCHAR

STARTCHAR bracketright
ENCODING 93
SWIDTH 320 0
DWIDTH 11 0
BBX 11 30 -2 -6
BITMAP
0FE0
0FE0
0FE0
0FE0
03E0
03E0
03C0
03C0
03C0
03C0
07C0
07C0
07C0
0780
0780
0780
0F80
0F80
0F80
0F80
0F00
0F00
0F00
1F00
1F00
1F00
FF00
FE00
FE00
FE00
ENDCHAR

STARTCHAR asciicircum
ENCODING 94
SWIDTH 600 0
DWIDTH 20 0
BBX 16 18 2 6
BITMAP
03C0
03C0
07E0
07E0
0FE0
0FF0
0F70
1EF0
1E78
1E78
3C38
3C3C
3C3C
781C
781E
781E
F00F
F00F
ENDCHAR

STARTCHAR underscore
ENCODING 95
SWIDTH 500 0
DWIDTH 17 0
BBX 17 2 0 -4
BITMAP
FFFF80
FFFF80
ENDCHAR

STARTCHAR quoteleft
ENCODING 96
SWIDTH 280 0
DWIDTH 9 0
BBX 5 9 4 15
BITMAP
18
30
70
60
F0
F0
F0
F0
F0
ENDCHAR

STARTCHAR a
ENCODING 97
SWIDTH 660 0
DWIDTH 22 0
BBX 19 18 1 0
BITMAP
03F1E0
0FF9E0
1FFDE0
3FFFE0
7E0FE0
7C07C0
F803C0
F803C0
F003C0
F003C0
F003C0
F007C0
F80FC0
7C1F80
7FFF80
3FFF80
1FF780
07C780
ENDCHAR

STARTCHAR b
ENCODING 98
SWIDTH 660 0
DWIDTH 22 0
BBX 19 24 1 0
BITMAP
1E0000
1E0000
1E0000
1E0000
3E0000
3E0000
3C7C00
3DFF00
3FFF80
3FFFC0
3F07C0
3E03E0
7C01E0
7801E0
7801E0
7801E0
7803E0
7803E0
7C07C0
FE0FC0
FFFF80
F7FF00
F3FE00
F1F800
ENDCHAR

STARTCHAR c
ENCODING 99
SWIDTH 640 0
DWIDTH 21 0
BBX 18 18 1 0
BITMAP
01FC00
07FF00
1FFF80
3FFFC0
7F0780
7C0200
F80000
F80000
F00000
F00000
F00000
F00000
F80400
7C0F00
7FFF80
3FFF00
1FFE00
07F000
ENDCHAR

STARTCHAR d
ENCODING 100
SWIDTH 660 0
DWIDTH 22 0
BBX 20 24 1 0
BITMAP
0000F0
0000F0
0001F0
0001F0
0001E0
0001E0
01E1E0
0FF9E0
1FFDE0
3FFFE0
7E0FE0
7C07C0
F803C0
F803C0
F003C0
F003C0
F003C0
F007C0
F80FC0
7C1F80
7FFF80
3FFF80
1FF780
07C780
ENDCHAR

STARTCHAR e
ENCODING 101
SWIDTH 640 0
DWIDTH 21 0
BBX 18 18 1 0
BITMAP
03F800
0FFE00
1FFF00
3FFF80
7E0F80
7C07C0
F803C0
FFFFC0
FFFFC0
FFFFC0
F00000
F00000
F80400
7C1E00
7FFF80
3FFE00
1FFC00
07F000
ENDCHAR

STARTCHAR f
ENCODING 102
SWIDTH 280 0
DWIDTH 9 0
BBX 11 25 0 0
BITMAP
03C0
0FE0
0FE0
0FE0
1F20
1E00
1E00
7FC0
7FC0
7F80
FF80
3E00
3C00
3C00
3C00
3C00
7C00
7C00
7C00
7800
7800
7800
7800
7800
F800
ENDCHAR

STARTCHAR g
ENCODING 103
SWIDTH 660 0
DWIDTH 22 0
BBX 20 24 0 -6
BITMAP
01F8F0
07FEF0
0FFFF0
1FFFF0
3F07F0
3E03E0
7C01E0
7C01E0
7801E0
7801E0
7801E0
7803E0
7C07C0
3E0FC0
3FFFC0
1FFFC0
0FFBC0
03C7C0
000780
380F80
FFFF00
7FFE00
1FFC00
07F000
ENDCHAR

STARTCHAR h
ENCODING 104
SWIDTH 600 0
DWIDTH 20 0
BBX 16 24 1 0
BITMAP
1E00
1E00
3E00
3E00
3C00
3C00
3C78
3DFE
3FFF
7FFF
7F1F
7C0F
7C0F
780F
780F
781F
F81F
F81E
F81E
F01E
F01E
F01E
F03E
F03E
ENDCHAR

STARTCHAR i
ENCODING 105
SWIDTH 240 0
DWIDTH 8 0
BBX 8 25 0 0
BITMAP
0E
1F
1F
1F
0E
00
00
1E
1E
3E
3E
3E
3C
3C
3C
3C
3C
7C
7C
78
78
78
78
78
F8
ENDCHAR

STARTCHAR j
ENCODING 106
SWIDTH 260 0
DWIDTH 9 0
BBX 11 31 -3 -6
BITMAP
01C0
03E0
03E0
03E0
01C0
0000
0000
03C0
03C0
07C0
07C0
0780
0780
0780
0780
0780
0F80
0F80
0F00
0F00
0F00
0F00
0F00
0F00
1F00
1E00
1E00
FE00
FC00
FC00
F000
ENDCHAR

STARTCHAR k
ENCODING 107
SWIDTH 580 0
DWIDTH 19 0
BBX 18 24 1 0
BITMAP
1E0000
1E0000
1E0000
1E0000
3E0000
3C0000
3C0FC0
3C1F80
3C3F00
3C7E00
3DF800
7DF000
7FE000
7F8000
7FC000
7BE000
7BE000
79F000
F8F800
F87C00
F07E00
F03E00
F01F00
F00F80
ENDCHAR

STARTCHAR l
ENCODING 108
SWIDTH 240 0
DWIDTH 8 0
BBX 8 24 0 0
BITMAP
1F
1F
1E
1E
1E
1E
1E
3E
3E
3C
3C
3C
3C
3C
3C
7C
7C
78
78
78
78
78
F8
F8
ENDCHAR

STARTCHAR m
ENCODING 109
SWIDTH 940 0
DWIDTH 31 0
BBX 28 18 0 0
BITMAP
1E7C0F80
3EFF1FE0
3FFFFFF0
3FFFFFF0
3F8FF1F0
3E07C0F0
3E07C0F0
3C0780F0
3C0780F0
7C0F81F0
7C0F81F0
780F01F0
780F01E0
780F01E0
780F01E0
780F01E0
F80F01E0
F81F03E0
ENDCHAR

STARTCHAR n
ENCODING 110
SWIDTH 600 0
DWIDTH 20 0
BBX 16 18 1 0
BITMAP
3CF8
3DFE
3FFF
7FFF
7F1F
7C0F
7C0F
780F
780F
781F
F81F
F81E
F81E
F01E
F01E
F01E
F03E
F03E
ENDCHAR

STARTCHAR o
ENCODING 111
SWIDTH 640 0
DWIDTH 21 0
BBX 18 18 1 0
BITMAP
01F800
07FE00
1FFF00
3FFF80
3E0F80
7C07C0
7803C0
F803C0
F003C0
F003C0
F007C0
F007C0
F80F80
7C1F80
7FFF00
3FFE00
1FFC00
07E000
ENDCHAR

STARTCHAR p
ENCODING 112
SWIDTH 660 0
DWIDTH 22 0
BBX 20 24 0 -6
BITMAP
1E3E00
1EFF80
1FFFC0
1FFFE0
1F83E0
3F01F0
3E00F0
3C00F0
3C00F0
3C00F0
3C01F0
3C01F0
3E03E0
7F07E0
7FFFC0
7BFF80
79FF00
78F800
780000
780000
F80000
F80000
F80000
F00000
ENDCHAR

STARTCHAR q
ENCODING 113
SWIDTH 660 0
DWIDTH 22 0
BBX 19 24 1 -6
BITMAP
03F1E0
0FF9E0
1FFDE0
3FFFE0
7E0FE0
7C07C0
F803C0
F803C0
F003C0
F003C0
F003C0
F007C0
F80FC0
7C1F80
7FFF80
3FFF80
1FF780
07C780
000F80
000F80
000F00
000F00
000F00
000F00
ENDCHAR

STARTCHAR r
ENCODING 114
SWIDTH 320 0
DWIDTH 11 0
BBX 11 18 0 0
BITMAP
3CE0
3FC0
3DC0
3FC0
7E00
7C00
7C00
7C00
7800
7800
7800
7800
F800
F800
F000
F000
F000
F000
ENDCHAR

STARTCHAR s
ENCODING 115
SWIDTH 440 0
DWIDTH 15 0
BBX 13 18 0 0
BITMAP
07C0
1FE0
1FF8
3FF0
3C70
3C20
3E00
1F80
0FC0
07E0
03F0
01F0
20F0
70F0
FFF0
7FE0
3FC0
1F80
ENDCHAR

STARTCHAR t
ENCODING 116
SWIDTH 300 0
DWIDTH 10 0
BBX 9 24 1 0
BITMAP
1E00
1E00
1E00
3E00
3E00
3C00
FF80
FF80
FF80
FF80
3C00
7C00
7C00
7800
7800
7800
7800
7800
F800
F800
F000
F000
F000
F000
ENDCHAR

STARTCHAR u
ENCODING 117
SWIDTH 600 0
DWIDTH 20 0
BBX 16 18 2 0
BITMAP
7C0F
780F
780F
780F
781F
F81F
F81E
F81E
F01E
F01E
F01E
F03E
F03C
F87C
7FFC
7FF8
3FF0
0FC0
ENDCHAR

STARTCHAR v
ENCODING 118
SWIDTH 560 0
DWIDTH 18 0
BBX 17 18 1 0
BITMAP
F00F80
F80F00
781F00
781E00
783E00
7C7C00
3C7C00
3CF800
3EF000
1EF000
1FE000
1FE000
1FC000
0F8000
0F8000
0F0000
070000
060000
ENDCHAR

STARTCHAR w
ENCODING 119
SWIDTH 800 0
DWIDTH 26 0
BBX 25 18 1 0
BITMAP
F0180780
F01C0F80
F83C1F00
783C1F00
787C3E00
787E3C00
7CFE7C00
3CFE7800
3DFEF800
3FEF7000
3FCFF000
1FCFE000
1F8FE000
1F87C000
1F07C000
0F078000
0E078000
0C030000
ENDCHAR

STARTCHAR x
ENCODING 120
SWIDTH 560 0
DWIDTH 18 0
BBX 17 18 0 0
BITMAP
7C0F80
3E1F00
3E1F00
1F3E00
0F7C00
0FFC00
07F800
07F000
03E000
03E000
07F000
0FF800
1FB800
1F7C00
3E3C00
7C3E00
FC1F00
F80F00
ENDCHAR

STARTCHAR y
ENCODING 121
SWIDTH 580 0
DWIDTH 19 0
BBX 18 24 1 -6
BITMAP
F007C0
F00780
F80F80
781F00
781E00
7C3E00
3C3C00
3C7C00
3EF800
1EF800
1FF000
1FE000
0FE000
0FC000
07C000
0F8000
0F0000
1F0000
1E0000
3E0000
3C0000
7C0000
F80000
F00000
ENDCHAR

STARTCHAR z
ENCODING 122
SWIDTH 460 0
DWIDTH 15 0
BBX 16 18 -1 0
BITMAP
3FFF
3FFE
3FFE
3FFC
0078
00F8
01F0
01E0
03E0
07C0
07C0
0F80
1F00
1E00
3FFF
7FFE
7FFE
FFFE
ENDCHAR

STARTCHAR braceleft
ENCODING 123
SWIDTH 340 0
DWIDTH 11 0
BBX 13 31 0 -7
BITMAP
0078
01F8
03F8
03F8
07C0
0780
0780
0780
0780
0780
0F80
0F00
1F00
7E00
FC00
F800
FC00
7E00
1E00
1E00
1E00
1E00
3E00
3E00
3C00
3C00
3E00
3F80
3F80
1F80
0F80
ENDCHAR

STARTCHAR bar
ENCODING 124
SWIDTH 600 0
DWIDTH 20 0
BBX 3 30 8 -6
BITMAP
E0
E0
E0
E0
E0
E0
E0
E0
E0
E0
E0
E0
E0
E0
E0
E0
E0
E0
E0
E0
E0
E0
E0
E0
E0
E0
E0
E0
E0
E0
ENDCHAR

STARTCHAR braceright
ENCODING 125
SWIDTH 340 0
DWIDTH 11 0
BBX 13 31 -3 -7
BITMAP
0F80
0FC0
0FE0
0FE0
01E0
01E0
01E0
03E0
03E0
03C0
03C0
03C0
03E0
03F8
01F8
00F8
01F8
03F0
07C0
0780
0780
0F80
0F00
0F00
0F00
0F00
1F00
FE00
FE00
FC00
F000
ENDCHAR

STARTCHAR asciitilde
ENCODING 126
SWIDTH 600 0
DWIDTH 20 0
BBX 16 8 2 8
BITMAP
3C00
FF01
FFC3
FFFF
FFFF
87FF
80FF
003C
ENDCHAR

STARTCHAR space
ENCODING 160
SWIDTH 280 0
DWIDTH 11 0
BBX 0 0 0 0
BITMAP
ENDCHAR

STARTCHAR Aogonek
ENCODING 161
SWIDTH 740 0
DWIDTH 24 0
BBX 23 30 -1 -6
BITMAP
000780
000F80
000F80
001FC0
001FC0
003FC0
003FC0
007DE0
00F9E0
00F9E0
01F1E0
01F1F0
03E1F0
03E0F0
07C0F0
07FFF8
0FFFF8
0FFFF8
1FFFF8
1E007C
3E007C
7C003C
7C003C
F8002E
00001C
000030
000070
000072
00007E
00003E
ENDCHAR

STARTCHAR breve
ENCODING 162
SWIDTH 480 0
DWIDTH 16 0
BBX 13 4 3 21
BITMAP
F0F8
FFF0
7FE0
1F80
ENDCHAR

STARTCHAR Lslash
ENCODING 163
SWIDTH 480 0
DWIDTH 16 0
BBX 14 24 0 0
BITMAP
07C0
0780
0780
0780
0F80
0F80
0F80
0F98
0F70
0FF0
0FE0
1F80
7F00
FF00
EF00
9E00
1E00
1E00
1E00
3E00
3FFC
3FFC
3FFC
3FFC
ENDCHAR

STARTCHAR currency
ENCODING 164
SWIDTH 600 0
DWIDTH 20 0
BBX 16 16 2 4
BITMAP
47E2
FFFF
FFFE
7C3E
780E
F00F
E007
E007
E007
E007
F00F
700E
7C3E
FFFF
EFFB
47E2
ENDCHAR

STARTCHAR Lcaron
ENCODING 165
SWIDTH 440 0
DWIDTH 15 0
BBX 14 24 1 0
BITMAP
1F3C
1F3C
1F7C
1E78
1E58
1E38
1E30
3E70
3E60
3E00
3C00
3C00
3C00
3C00
7C00
7C00
7C00
7800
7800
7800
7FF8
FFF0
FFF0
FFF0
ENDCHAR

STARTCHAR Sacute
ENCODING 166
SWIDTH 520 0
DWIDTH 17 0
BBX 16 32 0 0
BITMAP
001F
003E
007C
0078
00F0
01E0
03C0
0000
03F0
07FC
0FFE
1FFF
1F1E
1E0C
1E00
1F00
0F80
0FC0
07E0
03F0
01F8
00F8
007C
007C
003E
203E
703E
FC7E
FFFC
7FF8
3FF0
0FE0
ENDCHAR

STARTCHAR section
ENCODING 167
SWIDTH 560 0
DWIDTH 18 0
BBX 16 32 1 -6
BITMAP
01F0
07FC
0FFE
1FFE
1F1E
1E1F
1E00
1F00
1F80
0FE0
1FF0
3FF8
79FC
707E
F03E
F01E
F81E
FC1E
7E3C
3FFC
1FF8
0FE0
07F0
01F0
00F8
0078
F078
F8F8
FFF8
7FF0
3FE0
1F80
ENDCHAR

STARTCHAR dieresis
ENCODING 168
SWIDTH 500 0
DWIDTH 17 0
BBX 12 5 3 20
BITMAP
3060
78F0
F9F0
F1E0
60C0
ENDCHAR

STARTCHAR Scaron
ENCODING 169
SWIDTH 520 0
DWIDTH 17 0
BBX 16 29 0 0
BITMAP
1F1F
07BC
07F8
03F0
0000
03F0
07FC
0FFE
1FFF
1F1E
1E0C
1E00
1F00
0F80
0FC0
07E0
03F0
01F8
00F8
007C
007C
003E
203E
703E
FC7E
FFFC
7FF8
3FF0
0FE0
ENDCHAR

STARTCHAR Scommaaccent
ENCODING 170
SWIDTH 520 0
DWIDTH 17 0
BBX 16 30 0 -6
BITMAP
03F0
07FC
0FFE
1FFF
1F1E
1E0C
1E00
1F00
0F80
0FC0
07E0
03F0
01F8
00F8
007C
007C
003E
203E
703E
FC7C
FFFC
7FF8
3FF0
07C0
0000
0380
0380
0300
0100
0200
ENDCHAR

STARTCHAR Tcaron
ENCODING 171
SWIDTH 420 0
DWIDTH 14 0
BBX 16 30 1 0
BITMAP
3E3F
0F7C
0FF8
07E0
03C0
0000
FFFE
FFFE
FFFC
FFFC
0780
0780
0F80
0F80
0F80
0F80
0F00
0F00
0F00
0F00
1F00
1F00
1F00
1E00
1E00
1E00
1E00
3E00
3E00
3E00
ENDCHAR

STARTCHAR Zacute
ENCODING 172
SWIDTH 500 0
DWIDTH 17 0
BBX 17 32 0 0
BITMAP
001F80
003E00
007C00
007800
00F000
01E000
000000
000000
1FFF00
1FFF00
1FFE00
3FFE00
003C00
007C00
007800
00F800
00F000
01F000
01E000
03E000
03C000
07C000
078000
0F8000
0F8000
1F0000
1F0000
3E0000
3FFC00
3FFC00
7FFC00
FFFC00
ENDCHAR

STARTCHAR hyphen
ENCODING 173
SWIDTH 420 0
DWIDTH 14 0
BBX 9 4 2 7
BITMAP
FF80
FF80
FF80
FF80
ENDCHAR

STARTCHAR Zcaron
ENCODING 174
SWIDTH 500 0
DWIDTH 17 0
BBX 17 30 0 0
BITMAP
1F1F80
07BE00
03FC00
03F800
01E000
000000
1FFF00
1FFF00
1FFE00
3FFE00
003C00
007C00
007800
00F800
00F000
01F000
01E000
03E000
03C000
07C000
078000
0F8000
0F8000
1F0000
1F0000
3E0000
3FFC00
3FFC00
7FFC00
FFFC00
ENDCHAR

STARTCHAR Zdotaccent
ENCODING 175
SWIDTH 500 0
DWIDTH 17 0
BBX 16 30 0 0
BITMAP
0060
00F0
01F0
01E0
00C0
0000
1FFF
1FFE
3FFE
3FBE
007C
007C
00F8
00F8
01F0
01F0
01E0
03E0
03C0
07C0
0780
0F80
0F00
1F00
1E00
3E00
3FFC
7FFC
7FFC
FFFC
ENDCHAR

STARTCHAR degree
ENCODING 176
SWIDTH 400 0
DWIDTH 13 0
BBX 11 11 2 13
BITMAP
1F00
3F80
60C0
E060
C060
C060
C060
E0E0
71C0
3F80
1F00
ENDCHAR

STARTCHAR aogonek
ENCODING 177
SWIDTH 660 0
DWIDTH 22 0
BBX 19 24 1 -6
BITMAP
03F1E0
0FFBE0
1FFDE0
3FFFE0
7E0FC0
7C07C0
F803C0
F803C0
F003C0
F003C0
F007C0
F007C0
F80F80
7C1F80
7FFF80
3FFF80
1FF780
07CB80
000700
000C00
001C00
001E80
001F80
000F80
ENDCHAR

STARTCHAR ogonek
ENCODING 178
SWIDTH 340 0
DWIDTH 11 0
BBX 6 6 2 -6
BITMAP
3C
60
E0
F4
FC
7C
ENDCHAR

STARTCHAR lslash
ENCODING 179
SWIDTH 320 0
DWIDTH 11 0
BBX 11 24 0 0
BITMAP
0780
0780
0F80
0F80
0F00
0F00
0F00
0F00
0F60
1FC0
1FC0
1F80
3E00
FE00
FE00
9E00
1E00
3E00
3E00
3C00
3C00
3C00
3C00
3C00
ENDCHAR

STARTCHAR acute
ENCODING 180
SWIDTH 420 0
DWIDTH 14 0
BBX 10 6 5 21
BITMAP
0FC0
0F80
1E00
3C00
7800
F000
ENDCHAR

STARTCHAR lcaron
ENCODING 181
SWIDTH 289 0
DWIDTH 10 0
BBX 12 24 0 0
BITMAP
1F70
1F70
1E70
1EB0
1E60
1E60
1EC0
3E40
3E00
3C00
3C00
3C00
3C00
3C00
7C00
7C00
7C00
7800
7800
7800
7800
F800
F800
F800
ENDCHAR

STARTCHAR sacute
ENCODING 182
SWIDTH 440 0
DWIDTH 15 0
BBX 14 27 0 0
BITMAP
007C
00F8
01F0
03C0
0380
0700
0000
0000
0000
07C0
1FE0
1FF8
3FF0
3C70
3C20
3E00
1F80
0FC0
07E0
03F0
01F0
20F0
70F0
FFF0
7FE0
3FC0
1F80
ENDCHAR

STARTCHAR caron
ENCODING 183
SWIDTH 540 0
DWIDTH 18 0
BBX 13 5 4 20
BITMAP
F8F8
7DF0
3FC0
1F80
0F00
ENDCHAR

STARTCHAR commaaccent
ENCODING 184
SWIDTH 333 0
DWIDTH 11 0
BBX 3 5 4 -7
BITMAP
E0
E0
E0
40
C0
ENDCHAR

STARTCHAR scaron
ENCODING 185
SWIDTH 440 0
DWIDTH 15 0
BBX 14 25 0 0
BITMAP
7C7C
3EF8
1FF0
0FC0
0780
0000
0000
07C0
1FE0
1FF8
3FF0
3C70
3C20
3E00
1F80
0FC0
07E0
03F0
01F0
20F0
70F0
FFF0
7FE0
3FC0
1F80
ENDCHAR

STARTCHAR scommaaccent
ENCODING 186
SWIDTH 440 0
DWIDTH 15 0
BBX 13 24 0 -6
BITMAP
07C0
1FE0
1FF8
3FF0
3C70
3C20
3E00
1F80
0FC0
07E0
03F0
01F0
20F0
70F0
FFF0
7FE0
3FC0
0F00
0000
0E00
0E00
0E00
0400
0C00
ENDCHAR

STARTCHAR tcaron
ENCODING 187
SWIDTH 318 0
DWIDTH 10 0
BBX 13 24 1 0
BITMAP
1E38
1E38
1E58
1E30
3E70
3C20
FF80
FF80
FF80
FF80
3C00
7C00
7C00
7800
7800
7800
7800
7800
F800
F800
F000
F000
F000
F000
ENDCHAR

STARTCHAR zacute
ENCODING 188
SWIDTH 460 0
DWIDTH 15 0
BBX 16 28 -1 0
BITMAP
001F
003E
003C
0078
00F0
01E0
03C0
0000
0000
0000
3FFF
3FFE
3FFE
3FFC
0078
00F8
01F0
01E0
03E0
07C0
07C0
0F80
1F00
1E00
3FFF
7FFE
7FFE
FFFE
ENDCHAR

STARTCHAR hungarumlaut
ENCODING 189
SWIDTH 700 0
DWIDTH 23 0
BBX 17 6 8 21
BITMAP
0FCF80
0F1F00
1E3E00
3C7800
787000
F1E000
ENDCHAR

STARTCHAR zcaron
ENCODING 190
SWIDTH 460 0
DWIDTH 15 0
BBX 16 25 -1 0
BITMAP
1F9F
07BC
03F8
01F0
0000
0000
0000
3FFF
3FFE
3FFE
3FFC
0078
00F8
01F0
01E0
03E0
07C0
07C0
0F80
1F00
1E00
3FFF
7FFE
7FFE
FFFE
ENDCHAR

STARTCHAR zdotaccent
ENCODING 191
SWIDTH 460 0
DWIDTH 15 0
BBX 16 25 -1 0
BITMAP
0060
00F0
01F0
01E0
00C0
0000
0000
3FFF
3FFE
3FFE
3FFC
007C
00F8
01F0
01F0
03E0
07C0
07C0
0F80
1F00
1E00
3FFF
3FFE
7FFE
FFFE
ENDCHAR

STARTCHAR Racute
ENCODING 192
SWIDTH 580 0
DWIDTH 19 0
BBX 16 32 2 0
BITMAP
001F
003E
007C
00F8
00E0
03C0
0000
0000
1FE0
1FF8
3FFE
3FFE
3E7F
3E1F
3C0F
3C0F
3C1F
7C3F
7FFE
7FFC
7FF8
7FC0
7BE0
79E0
79F0
F8F0
F8F8
F878
F87C
F03C
F03E
F01F
ENDCHAR

STARTCHAR Aacute
ENCODING 193
SWIDTH 740 0
DWIDTH 24 0
BBX 22 32 0 0
BITMAP
0000F8
0001F0
0003E0
0007C0
000780
001E00
000000
000000
000F00
000F80
001F80
001F80
003F80
003FC0
007FC0
00FBC0
00FBC0
01F3E0
01F3E0
03E1E0
03E1E0
07C1F0
0781F0
0FFFF0
0FFFF0
1FFFF8
3FFFF8
3E0078
7C0078
7C007C
F8007C
F8003C
ENDCHAR

STARTCHAR Acircumflex
ENCODING 194
SWIDTH 740 0
DWIDTH 24 0
BBX 22 30 0 0
BITMAP
000780
000FC0
001FE0
003DF0
00F8F8
000000
000F00
000F80
001F80
001F80
003F80
003FC0
007FC0
00FBC0
00FBC0
01F3E0
01F3E0
03E1E0
03E1E0
07C1F0
0781F0
0FFFF0
0FFFF0
1FFFF8
3FFFF8
3E0078
7C0078
7C007C
F8007C
F8003C
ENDCHAR

STARTCHAR Abreve
ENCODING 195
SWIDTH 740 0
DWIDTH 24 0
BBX 22 30 0 0
BITMAP
00F0F8
00FFF0
007FE0
003FC0
000000
000000
000F00
000F80
001F80
001F80
003F80
003FC0
007FC0
00FBC0
00FBC0
01F3E0
01F3E0
03E1E0
03E1E0
07C1F0
0781F0
0FFFF0
0FFFF0
1FFFF8
3FFFF8
3E0078
7C0078
7C007C
F8007C
F8003C
ENDCHAR

STARTCHAR Adieresis
ENCODING 196
SWIDTH 740 0
DWIDTH 24 0
BBX 23 30 -1 0
BITMAP
001830
003C78
007CF8
0078F0
003870
000000
000780
000780
000FC0
001FC0
001FC0
003FC0
003FE0
007DE0
007DE0
00F9E0
00F1F0
01F1F0
01E0F0
03E0F0
07C0F8
07FFF8
0FFFF8
0FFFF8
1FFFF8
1F007C
3E003C
3E003C
7C003C
F8003E
ENDCHAR

STARTCHAR Lacute
ENCODING 197
SWIDTH 440 0
DWIDTH 15 0
BBX 15 32 1 0
BITMAP
007E
00F8
00F0
01E0
03C0
0780
0000
0000
1F00
1F00
1F00
1E00
1E00
1E00
1E00
3E00
3E00
3E00
3C00
3C00
3C00
3C00
7C00
7C00
7C00
7800
7800
7800
7FF8
FFF0
FFF0
FFF0
ENDCHAR

STARTCHAR Cacute
ENCODING 198
SWIDTH 780 0
DWIDTH 26 0
BBX 23 31 1 0
BITMAP
0003F0
0007C0
000780
000F00
001E00
003C00
000000
003FC0
00FFF8
03FFFC
07FFFE
0FE07C
1F8018
3F0000
3E0000
7C0000
780000
F80000
F80000
F80000
F80000
F80000
780000
7C0000
7E0000
3F0030
3FC0F0
1FFFFC
0FFFF8
03FFF0
00FF80
ENDCHAR

STARTCHAR Ccedilla
ENCODING 199
SWIDTH 780 0
DWIDTH 26 0
BBX 24 29 1 -5
BITMAP
003FE0
00FFF8
03FFFE
07FFFF
0FF03E
1F801C
3F0000
3E0000
7C0000
7C0000
780000
F80000
F80000
F80000
F80000
780000
7C0000
7E0000
3F0010
1FC0F8
1FFFFC
07FFFC
03FFF0
007F80
003C00
000E00
009E00
01FC00
01F800
ENDCHAR

STARTCHAR Ccaron
ENCODING 200
SWIDTH 780 0
DWIDTH 26 0
BBX 23 29 1 0
BITMAP
00FCF8
003DE0
001FC0
000F80
000000
003FC0
00FFF8
03FFFC
07FFFE
0FE07C
1F8018
3F0000
3E0000
7C0000
780000
F80000
F80000
F80000
F80000
F80000
780000
7C0000
7E0000
3F0030
3FC0F0
1FFFFC
0FFFF8
03FFF0
00FF80
ENDCHAR

STARTCHAR Eacute
ENCODING 201
SWIDTH 520 0
DWIDTH 17 0
BBX 16 32 1 0
BITMAP
003F
003C
0078
00F0
01E0
03C0
0000
0000
1FFF
1FFF
1FFE
3FFE
3E00
3E00
3E00
3C00
3C00
3FFE
3FFC
7FFC
7FFC
7C00
7C00
7800
7800
7800
7800
F800
FFF8
FFF8
FFF8
FFF8
ENDCHAR

STARTCHAR Eogonek
ENCODING 202
SWIDTH 520 0
DWIDTH 17 0
BBX 16 30 0 -6
BITMAP
1FFF
1FFF
1FFF
1FFF
1E00
1E00
1E00
1E00
3E00
3FFE
3FFE
3FFE
3FFE
3C00
3C00
3C00
7C00
7C00
7C00
7800
7FFC
7FFC
7FFC
FFF8
0070
00E0
01C0
01C8
01F8
00F8
ENDCHAR

STARTCHAR Edieresis
ENCODING 203
SWIDTH 520 0
DWIDTH 17 0
BBX 16 30 1 0
BITMAP
060C
0F1E
1F3E
1E3C
0C18
0000
1FFF
1FFF
1FFF
1FFF
1E00
1E00
3E00
3E00
3E00
3FFE
3FFE
3FFE
3FFC
3C00
7C00
7C00
7C00
7C00
7800
7800
7FFC
7FF8
FFF8
FFF8
ENDCHAR

STARTCHAR Ecaron
ENCODING 204
SWIDTH 520 0
DWIDTH 17 0
BBX 16 30 1 0
BITMAP
1F1F
0FBE
07F8
03F0
01E0
0000
1FFF
1FFF
1FFE
3FFE
3E00
3E00
3E00
3C00
3C00
3FFE
3FFC
7FFC
7FFC
7C00
7C00
7800
7800
7800
7800
F800
FFF8
FFF8
FFF8
FFF8
ENDCHAR

STARTCHAR Iacute
ENCODING 205
SWIDTH 280 0
DWIDTH 9 0
BBX 12 32 1 0
BITMAP
03F0
03C0
0780
0F00
1E00
3C00
0000
0000
1F00
1E00
1E00
1E00
1E00
3E00
3E00
3C00
3C00
3C00
3C00
3C00
7C00
7C00
7C00
7800
7800
7800
7800
7800
F800
F800
F000
F000
ENDCHAR

STARTCHAR Icircumflex
ENCODING 206
SWIDTH 280 0
DWIDTH 9 0
BBX 13 30 0 0
BITMAP
0780
0FC0
3FC0
7DE0
F8F8
0000
0F80
0F00
0F00
0F00
0F00
1F00
1F00
1E00
1E00
1E00
1E00
1E00
3E00
3E00
3E00
3C00
3C00
3C00
3C00
3C00
7C00
7C00
7800
7800
ENDCHAR

STARTCHAR Dcaron
ENCODING 207
SWIDTH 700 0
DWIDTH 23 0
BBX 21 30 1 0
BITMAP
03E3E0
01E780
00FF00
007E00
003800
000000
1FF800
1FFF00
1FFF80
1FFFC0
1E0FE0
1E03E0
3E01F0
3E01F0
3E00F0
3C00F8
3C00F8
3C00F8
3C00F8
7C00F8
7C00F0
7C01F0
7C01F0
7803E0
7807E0
781FC0
7FFF80
FFFF80
FFFE00
FFF800
ENDCHAR

STARTCHAR Dcroat
ENCODING 208
SWIDTH 742 0
DWIDTH 24 0
BBX 21 24 2 0
BITMAP
1FF800
1FFF00
1FFF80
1FFFC0
1E1FE0
1E07E0
3E03F0
3E01F0
3E00F0
3E00F8
3C00F8
FFF0F8
FFE0F8
BFE0F8
7C00F8
7C00F0
7C01F0
7803F0
7807E0
781FC0
7FFFC0
FFFF80
FFFE00
FFF800
ENDCHAR

STARTCHAR Nacute
ENCODING 209
SWIDTH 740 0
DWIDTH 24 0
BBX 22 32 1 0
BITMAP
0003E0
0007C0
000F80
000F00
001E00
007C00
000000
000000
1E003C
1F003C
1F003C
1F807C
1FC07C
1FC07C
3FE078
3FE078
3DF078
3CF078
3CF878
3C78F8
3C7CF8
3C3CF8
7C3EF0
7C1EF0
781FF0
780FF0
780FF0
7807F0
7803F0
F803E0
F801E0
F001E0
ENDCHAR

STARTCHAR Ncaron
ENCODING 210
SWIDTH 740 0
DWIDTH 24 0
BBX 22 30 1 0
BITMAP
03E1F0
01F3C0
00FB80
007F00
003E00
000000
1E003C
1F003C
1F003C
1F807C
1FC07C
1FC07C
3FE078
3FE078
3DF078
3CF078
3CF878
3C78F8
3C7CF8
3C3CF8
7C3EF0
7C1EF0
781FF0
780FF0
780FF0
7807F0
7803F0
F803E0
F801E0
F001E0
ENDCHAR

STARTCHAR Oacute
ENCODING 211
SWIDTH 840 0
DWIDTH 28 0
BBX 25 32 1 0
BITMAP
0001F800
0001F000
0003E000
0007C000
000F0000
000E0000
001C0000
00000000
007FC000
01FFF000
07FFF800
0FFFFE00
1FE07E00
3F803F00
3E001F00
7C000F80
7C000F80
F8000780
F8000780
F0000780
F0000780
F0000F80
F0000F80
F8001F00
F8001F00
FC003E00
7E00FE00
3F03FC00
3FFFF800
1FFFF000
07FFC000
01FE0000
ENDCHAR

STARTCHAR Ocircumflex
ENCODING 212
SWIDTH 840 0
DWIDTH 28 0
BBX 25 29 1 0
BITMAP
000F8000
001FC000
007DE000
01F9F800
00000000
007FC000
01FFF000
07FFF800
0FFFFE00
1FE07E00
3F803F00
3E001F00
7C000F80
7C000F80
F8000780
F8000780
F0000780
F0000780
F0000F80
F0000F80
F8001F00
F8001F00
FC003E00
7E00FE00
3F03FC00
3FFFF800
1FFFF000
07FFC000
01FE0000
ENDCHAR

STARTCHAR Ohungarumlaut
ENCODING 213
SWIDTH 840 0
DWIDTH 28 0
BBX 26 31 1 0
BITMAP
0007E7C0
00078F80
000F1F00
001E3C00
003C3800
0078F000
00000000
003F8000
01FFF000
03FFF800
0FFFFE00
1FE07E00
3F803F00
3E001F00
7C000F80
7C000F80
F8000780
F8000780
F0000780
F0000780
F0000F80
F0000F80
F8001F00
F8001F00
FC003E00
7E00FE00
3F03FC00
3FFFF800
1FFFF000
07FFC000
01FE0000
ENDCHAR

STARTCHAR Odieresis
ENCODING 214
SWIDTH 840 0
DWIDTH 28 0
BBX 25 30 2 0
BITMAP
0060C000
00F1E000
01F3E000
01E3E000
00E1C000
00000000
007FC000
01FFF000
07FFF800
0FFFFC00
1FC0FE00
3F003F00
3E001F00
7C000F80
7C000F80
F8000F80
F8000780
F0000780
F0000F80
F0000F80
F0000F80
F8001F00
F8003F00
FC007E00
7E00FE00
7F03FC00
3FFFF800
1FFFE000
07FFC000
01FE0000
ENDCHAR

STARTCHAR multiply
ENCODING 215
SWIDTH 600 0
DWIDTH 20 0
BBX 15 15 2 4
BITMAP
300C
F81E
7C3E
3E7C
1F78
0FF0
07C0
07E0
0FF0
1FF8
3E7C
FC3E
781E
300C
1004
ENDCHAR

STARTCHAR Rcaron
ENCODING 216
SWIDTH 580 0
DWIDTH 19 0
BBX 16 30 2 0
BITMAP
1F1F
0FBE
07BC
03F0
01E0
0000
1FE0
1FF8
3FFE
3FFE
3E7F
3E1F
3C0F
3C0F
3C1F
7C3F
7FFE
7FFC
7FF8
7FC0
7BE0
79E0
79F0
F8F0
F8F8
F878
F87C
F03C
F03E
F01F
ENDCHAR

STARTCHAR Uring
ENCODING 217
SWIDTH 640 0
DWIDTH 21 0
BBX 18 33 2 0
BITMAP
00F800
01FC00
01CC00
018C00
01DC00
01FC00
00F800
000000
000000
3E03C0
3C03C0
3C07C0
7C07C0
7C07C0
7C07C0
7C0780
780780
780780
780F80
780F80
F80F80
F80F80
F80F80
F80F00
F00F00
F01F00
F01F00
F81F00
FC3E00
7FFE00
7FFC00
3FF800
0FE000
ENDCHAR

STARTCHAR Uacute
ENCODING 218
SWIDTH 640 0
DWIDTH 21 0
BBX 18 32 2 0
BITMAP
000F80
001F00
003E00
007C00
007800
01E000
000000
000000
3C03C0
3C07C0
3C07C0
7C07C0
7C0780
7C0780
7C0780
780780
780F80
780F80
780F80
F80F80
F80F00
F80F00
F00F00
F01F00
F01F00
F01F00
F83E00
FC7E00
7FFC00
7FFC00
3FF800
0FE000
ENDCHAR

STARTCHAR Uhungarumlaut
ENCODING 219
SWIDTH 640 0
DWIDTH 21 0
BBX 23 32 2 0
BITMAP
003F7E
007CF8
00F8F0
00F1E0
01E3C0
03C780
000000
000000
3C03C0
3C07C0
3C07C0
7C07C0
7C0780
7C0780
7C0780
780780
780F80
780F80
780F80
F80F80
F80F00
F80F00
F00F00
F01F00
F01F00
F01F00
F83E00
FC7E00
7FFC00
7FFC00
3FF800
0FE000
ENDCHAR

STARTCHAR Udieresis
ENCODING 220
SWIDTH 640 0
DWIDTH 21 0
BBX 18 30 2 0
BITMAP
030600
078F00
0F9F00
0F1E00
070E00
000000
3E03C0
3C07C0
3C07C0
7C07C0
7C07C0
7C0780
7C0780
780780
780F80
780F80
780F80
F80F80
F80F80
F80F00
F80F00
F01F00
F01F00
F01F00
F81E00
FC3E00
7FFE00
7FFC00
3FF800
0FE000
ENDCHAR

STARTCHAR Yacute
ENCODING 221
SWIDTH 620 0
DWIDTH 20 0
BBX 20 32 1 0
BITMAP
0007C0
000F80
001F00
001E00
003C00
00F800
000000
000000
F801F0
7803E0
7C07C0
7C07C0
3C0F80
3E1F00
1E3F00
1E3E00
1F7C00
0F7800
0FF800
0FF000
07E000
07E000
03C000
07C000
07C000
07C000
078000
078000
078000
078000
0F8000
0F8000
ENDCHAR

STARTCHAR Tcommaaccent
ENCODING 222
SWIDTH 420 0
DWIDTH 14 0
BBX 15 31 1 -7
BITMAP
FFFE
FFFE
FFFC
FFFC
0780
0780
0F80
0F80
0F80
0F80
0F00
0F00
0F00
0F00
1F00
1F00
1F00
1E00
1E00
1E00
1E00
3E00
3E00
3E00
0000
0000
1C00
1C00
2800
1800
1000
ENDCHAR

STARTCHAR germandbls
ENCODING 223
SWIDTH 600 0
DWIDTH 20 0
BBX 17 25 1 0
BITMAP
01F800
07FE00
0FFF00
0FFF80
1F0F80
1E0780
3E0780
3C0F80
3C1F00
3CFF00
7CFE00
7DF800
7DFC00
783E00
781F00
780F00
780F00
780F00
F80F00
F81F00
F43F00
F7FE00
F7FC00
F7F800
F7E000
ENDCHAR

STARTCHAR racute
ENCODING 224
SWIDTH 320 0
DWIDTH 11 0
BBX 14 27 0 0
BITMAP
00FC
01F0
03E0
03C0
0780
0F00
0000
0000
0000
3CE0
3FC0
3DC0
3FC0
7E00
7C00
7C00
7C00
7800
7800
7800
7800
F800
F800
F000
F000
F000
F000
ENDCHAR

STARTCHAR aacute
ENCODING 225
SWIDTH 660 0
DWIDTH 22 0
BBX 19 27 1 0
BITMAP
000FC0
001F00
001E00
003C00
007800
00F000
000000
000000
000000
03F1E0
0FF9E0
1FFDE0
3FFFE0
7E0FE0
7C07C0
F803C0
F803C0
F003C0
F003C0
F003C0
F007C0
F80FC0
7C1F80
7FFF80
3FFF80
1FF780
07C780
ENDCHAR

STARTCHAR acircumflex
ENCODING 226
SWIDTH 660 0
DWIDTH 22 0
BBX 19 25 1 0
BITMAP
007C00
00FC00
01FE00
03CF00
0F8F80
000000
000000
03F1E0
0FF9E0
1FFDE0
3FFFE0
7E0FE0
7C07C0
F803C0
F803C0
F003C0
F003C0
F003C0
F007C0
F80FC0
7C1F80
7FFF80
3FFF80
1FF780
07C780
ENDCHAR

STARTCHAR abreve
ENCODING 227
SWIDTH 660 0
DWIDTH 22 0
BBX 19 25 1 0
BITMAP
0F87C0
07FF80
03FF00
01FC00
000000
000000
000000
03F1E0
0FF9E0
1FFDE0
3FFFE0
7E0FE0
7C07C0
F803C0
F803C0
F003C0
F003C0
F003C0
F007C0
F80FC0
7C1F80
7FFF80
3FFF80
1FF780
07C780
ENDCHAR

STARTCHAR adieresis
ENCODING 228
SWIDTH 660 0
DWIDTH 22 0
BBX 19 25 1 0
BITMAP
030600
078F00
0F9F00
0F1E00
060C00
000000
000000
03E3E0
0FFBE0
1FFDC0
3FFFC0
7E0FC0
7C07C0
F807C0
F003C0
F003C0
F007C0
F00780
F00780
F80F80
7C1F80
7FFF80
3FFF80
1FEF80
07CF00
ENDCHAR

STARTCHAR lacute
ENCODING 229
SWIDTH 240 0
DWIDTH 8 0
BBX 13 32 0 0
BITMAP
01F8
03E0
03C0
0780
0F00
1E00
0000
0000
1F00
1F00
1E00
1E00
1E00
1E00
1E00
3E00
3E00
3C00
3C00
3C00
3C00
3C00
3C00
7C00
7C00
7800
7800
7800
7800
7800
F800
F800
ENDCHAR

STARTCHAR cacute
ENCODING 230
SWIDTH 640 0
DWIDTH 21 0
BBX 18 27 1 0
BITMAP
001F80
001E00
003C00
007800
00F000
01E000
000000
000000
000000
01FC00
07FF00
1FFF80
3FFFC0
3F0780
7C0200
780000
F80000
F00000
F00000
F00000
F00000
F80400
7C0F00
7FFF80
3FFF00
1FFE00
07F000
ENDCHAR

STARTCHAR ccedilla
ENCODING 231
SWIDTH 640 0
DWIDTH 21 0
BBX 18 23 1 -5
BITMAP
03FC00
0FFE00
1FFF80
3FFFC0
7E0F80
7C0200
F80000
F00000
F00000
F00000
F00000
F00000
F80400
7C1E00
7FFF80
3FFE00
1FFC00
02C000
01E000
007000
047000
07E000
0FC000
ENDCHAR

STARTCHAR ccaron
ENCODING 232
SWIDTH 640 0
DWIDTH 21 0
BBX 18 25 1 0
BITMAP
0F8F80
07DF00
03FC00
01F800
00F000
000000
000000
01FC00
07FF00
1FFF80
3FFFC0
3F0780
7C0200
780000
F80000
F00000
F00000
F00000
F00000
F80400
7C0F00
7FFF80
3FFF00
1FFE00
07F000
ENDCHAR

STARTCHAR eacute
ENCODING 233
SWIDTH 640 0
DWIDTH 21 0
BBX 18 27 1 0
BITMAP
000F80
001F00
003C00
007800
007000
01E000
000000
000000
000000
03F800
0FFE00
1FFF00
3FFF80
7E0F80
7C07C0
F803C0
FFFFC0
FFFFC0
FFFFC0
F00000
F00000
F80400
7C1E00
7FFF80
3FFE00
1FFC00
07F000
ENDCHAR

STARTCHAR eogonek
ENCODING 234
SWIDTH 640 0
DWIDTH 21 0
BBX 18 24 1 -6
BITMAP
03F800
0FFE00
1FFF00
3FFF80
7E0F80
7C07C0
F803C0
FFFFC0
FFFFC0
FFFFC0
F00000
F00000
F80400
FC1E00
7FFF80
3FFE00
1FFC00
07F000
018000
030000
070000
07A000
07E000
03E000
ENDCHAR

STARTCHAR edieresis
ENCODING 235
SWIDTH 640 0
DWIDTH 21 0
BBX 18 25 1 0
BITMAP
030600
078F00
0F9F00
0F1E00
060C00
000000
000000
01F800
0FFE00
1FFF00
3FFF80
7E0F80
7C07C0
7803C0
FFFFC0
FFFFC0
FFFFC0
F00000
F80000
F80400
7C1E00
7FFF80
3FFE00
1FFC00
07F000
ENDCHAR

STARTCHAR ecaron
ENCODING 236
SWIDTH 640 0
DWIDTH 21 0
BBX 18 25 1 0
BITMAP
0F8F80
07DF00
03FE00
01F800
00F000
000000
000000
03F800
0FFE00
1FFF00
3FFF80
7E0F80
7C07C0
F803C0
FFFFC0
FFFFC0
FFFFC0
F00000
F00000
F80400
7C1E00
7FFF80
3FFE00
1FFC00
07F000
ENDCHAR

STARTCHAR iacute
ENCODING 237
SWIDTH 240 0
DWIDTH 8 0
BBX 12 27 0 0
BITMAP
03F0
07C0
0F80
0F00
1C00
3800
0000
0000
0000
1E00
3E00
3E00
3C00
3C00
3C00
3C00
3C00
7C00
7C00
7800
7800
7800
7800
7800
F800
F800
F000
ENDCHAR

STARTCHAR icircumflex
ENCODING 238
SWIDTH 240 0
DWIDTH 8 0
BBX 13 25 -2 0
BITMAP
07C0
0FE0
1EF0
FCF8
0000
0000
0000
0780
0F80
0F80
0F00
0F00
0F00
0F00
0F00
1F00
1F00
1E00
1E00
1E00
1E00
1E00
3E00
3E00
3C00
ENDCHAR

STARTCHAR dcaron
ENCODING 239
SWIDTH 707 0
DWIDTH 23 0
BBX 25 24 1 0
BITMAP
0000F780
0001F700
0001F700
0001F700
0001E300
0001EE00
01F1E400
0FF9E000
1FFDE000
3FFFE000
7E0FE000
7C07C000
F803C000
F803C000
F003C000
F003C000
F003C000
F007C000
F80FC000
7C1F8000
7FFF8000
3FFF8000
1FF78000
07C78000
ENDCHAR

STARTCHAR dcroat
ENCODING 240
SWIDTH 660 0
DWIDTH 22 0
BBX 23 24 1 0
BITMAP
0000F0
0001F0
003FFE
003FFC
0001E0
0001E0
03F1E0
0FF9E0
1FFDE0
3FFFE0
7E0FE0
7C07C0
F803C0
F803C0
F003C0
F003C0
F003C0
F007C0
F80FC0
7C1F80
7FFF80
3FFF80
1FF780
07C780
ENDCHAR

STARTCHAR nacute
ENCODING 241
SWIDTH 600 0
DWIDTH 20 0
BBX 16 27 1 0
BITMAP
003F
003C
0078
00F0
01E0
03C0
0000
0000
0000
3CF8
3DFE
3FFF
7FFF
7F1F
7C0F
7C0F
780F
780F
781F
F81F
F81E
F81E
F01E
F01E
F01E
F03E
F03E
ENDCHAR

STARTCHAR ncaron
ENCODING 242
SWIDTH 600 0
DWIDTH 20 0
BBX 16 25 1 0
BITMAP
1F1F
0FBE
07F8
03F0
01E0
0000
0000
3CF8
3DFE
3FFF
7FFF
7F1F
7C0F
7C0F
780F
780F
781F
F81F
F81E
F81E
F01E
F01E
F01E
F03E
F03E
ENDCHAR

STARTCHAR oacute
ENCODING 243
SWIDTH 640 0
DWIDTH 21 0
BBX 18 27 1 0
BITMAP
000F80
001E00
003C00
007800
007000
01E000
000000
000000
000000
01F800
07FE00
1FFF00
3FFF80
3E0F80
7C07C0
7803C0
F803C0
F003C0
F003C0
F007C0
F007C0
F80F80
7C1F80
7FFF00
3FFE00
1FFC00
07E000
ENDCHAR

STARTCHAR ocircumflex
ENCODING 244
SWIDTH 640 0
DWIDTH 21 0
BBX 18 25 1 0
BITMAP
007800
00FC00
03FE00
07DF00
0F8F80
000000
000000
01F800
07FE00
1FFF00
3FFF80
3E0F80
7C07C0
7803C0
F803C0
F003C0
F003C0
F007C0
F007C0
F80F80
7C1F80
7FFF00
3FFE00
1FFC00
07E000
ENDCHAR

STARTCHAR ohungarumlaut
ENCODING 245
SWIDTH 640 0
DWIDTH 21 0
BBX 23 27 1 0
BITMAP
003F7E
007CF8
00F8F0
00F1E0
01E3C0
03C780
000000
000000
000000
03F800
0FFE00
1FFF00
3FFF80
3E0F80
7C07C0
7803C0
F803C0
F003C0
F003C0
F007C0
F007C0
F80F80
7C1F80
7FFF00
3FFE00
1FFC00
07E000
ENDCHAR

STARTCHAR odieresis
ENCODING 246
SWIDTH 640 0
DWIDTH 21 0
BBX 18 25 1 0
BITMAP
030600
078F00
0F9F00
0F1E00
060C00
000000
000000
01F800
07FE00
1FFF00
3FFF80
3E0F80
7C07C0
7803C0
F803C0
F003C0
F003C0
F007C0
F007C0
F80F80
7C1F80
7FFF00
3FFE00
1FFC00
07E000
ENDCHAR

STARTCHAR divide
ENCODING 247
SWIDTH 600 0
DWIDTH 20 0
BBX 17 19 1 3
BITMAP
03E000
03E000
03E000
03E000
03E000
000000
000000
000000
FFFF80
FFFF80
FFFF80
FFFF80
000000
000000
03E000
03E000
03E000
03E000
03E000
ENDCHAR

STARTCHAR rcaron
ENCODING 248
SWIDTH 320 0
DWIDTH 11 0
BBX 14 25 0 0
BITMAP
F8FC
3DF0
1FE0
1FC0
0F00
0000
0000
3CE0
3FC0
3DC0
3FC0
7E00
7C00
7C00
7C00
7800
7800
7800
7800
F800
F800
F000
F000
F000
F000
ENDCHAR

STARTCHAR uring
ENCODING 249
SWIDTH 600 0
DWIDTH 20 0
BBX 16 28 2 0
BITMAP
01F0
03F8
0398
0318
03B8
01F8
00E0
0000
0000
0000
7C0F
780F
780F
780F
780F
F81F
F81F
F81E
F01E
F01E
F01E
F03E
F83E
F87C
7FFC
7FF8
3FF0
0FC0
ENDCHAR

STARTCHAR uacute
ENCODING 250
SWIDTH 600 0
DWIDTH 20 0
BBX 16 27 2 0
BITMAP
003F
003C
0078
00F0
01E0
03C0
0000
0000
0000
7C0F
780F
780F
780F
781F
F81F
F81E
F81E
F01E
F01E
F01E
F03E
F83E
F87C
7FFC
7FF8
3FF0
0FC0
ENDCHAR

STARTCHAR uhungarumlaut
ENCODING 251
SWIDTH 600 0
DWIDTH 20 0
BBX 22 27 2 0
BITMAP
007EFC
00F9F0
01F1E0
01E3C0
03C780
078F00
000000
000000
000000
7C0F00
780F00
780F00
780F00
781F00
F81F00
F81E00
F81E00
F01E00
F01E00
F01E00
F03E00
F83E00
F87C00
7FFC00
7FF800
3FF000
0FC000
ENDCHAR

STARTCHAR udieresis
ENCODING 252
SWIDTH 600 0
DWIDTH 20 0
BBX 16 25 2 0
BITMAP
060C
0F1E
1F3E
1E3C
0C18
0000
0000
7C0F
780F
780F
780F
781F
F81F
F81E
F81E
F01E
F01E
F01E
F03E
F83E
F87C
7FFC
7FF8
3FF0
0FC0
ENDCHAR

STARTCHAR yacute
ENCODING 253
SWIDTH 580 0
DWIDTH 19 0
BBX 18 33 1 -6
BITMAP
001F80
003E00
003C00
007800
00F000
01E000
000000
000000
000000
F007C0
F00780
F80F80
781F00
781E00
7C3E00
3C3C00
3C7C00
3EF800
1EF800
1FF000
1FE000
0FE000
0FC000
07C000
0F8000
0F0000
1F0000
1E0000
3E0000
3C0000
7C0000
F80000
F00000
ENDCHAR

STARTCHAR tcommaaccent
ENCODING 254
SWIDTH 300 0
DWIDTH 10 0
BBX 9 31 1 -7
BITMAP
1E00
1E00
1E00
3E00
3E00
3C00
FF80
FF80
FF80
FF80
3C00
7C00
7C00
7800
7800
7800
7800
7800
F800
F800
F000
F000
F000
F000
0000
0000
E000
E000
E000
4000
C000
ENDCHAR

STARTCHAR dotaccent
ENCODING 255
SWIDTH 280 0
DWIDTH 9 0
BBX 5 5 3 20
BITMAP
30
78
F8
F0
60
ENDCHAR
ENDFONT
